<?xml version="1.0" encoding="utf-8"?>
<!-- Generator: Adobe Illustrator 15.0.2, SVG Export Plug-In . SVG Version: 6.00 Build 0)  -->
<!DOCTYPE svg PUBLIC "-//W3C//DTD SVG 1.1//EN" "http://www.w3.org/Graphics/SVG/1.1/DTD/svg11.dtd">
<svg version="1.1" id="Ebene_1" xmlns="http://www.w3.org/2000/svg" xmlns:xlink="http://www.w3.org/1999/xlink" x="0px" y="0px"
	 width="400px" height="400px" viewBox="0 0 400 400" enable-background="new 0 0 400 400" xml:space="preserve">
<g>
	<g>
		
			<rect x="-0.409" y="421" fill="none" stroke="#1D1D1B" stroke-width="1.1109" stroke-miterlimit="10" width="399.938" height="399.94"/>
		
			<rect x="399.529" y="421" fill="none" stroke="#1D1D1B" stroke-width="1.1109" stroke-miterlimit="10" width="248.738" height="399.94"/>
		
			<rect x="399.529" y="421" fill="none" stroke="#1D1D1B" stroke-width="1.1109" stroke-miterlimit="10" width="248.738" height="248.737"/>
		
			<rect x="497.066" y="669.737" fill="none" stroke="#1D1D1B" stroke-width="1.1109" stroke-miterlimit="10" width="151.201" height="151.203"/>
		
			<rect x="399.529" y="723.402" fill="none" stroke="#1D1D1B" stroke-width="1.1109" stroke-miterlimit="10" width="97.537" height="97.538"/>
		
			<rect x="399.529" y="669.737" fill="none" stroke="#1D1D1B" stroke-width="1.1109" stroke-miterlimit="10" width="53.667" height="53.665"/>
		
			<rect x="453.196" y="669.737" fill="none" stroke="#1D1D1B" stroke-width="1.1109" stroke-miterlimit="10" width="43.87" height="43.873"/>
		<path fill="none" stroke="#F6AA00" stroke-width="1.1109" stroke-miterlimit="10" d="M-0.409,820.94
			C-0.409,599.88,178.468,421,399.529,421"/>
		<path fill="none" stroke="#BD1622" stroke-width="1.1109" stroke-miterlimit="10" d="M648.268,669.737
			C648.268,532.253,537.014,421,399.529,421"/>
		<path fill="none" stroke="#E5332A" stroke-width="1.1109" stroke-miterlimit="10" d="M648.269,669.737
			c0,83.575-67.629,151.203-151.201,151.203"/>
		<path fill="none" stroke="#BD1622" stroke-width="1.1109" stroke-miterlimit="10" d="M399.529,723.402
			c0,53.913,43.626,97.538,97.537,97.538"/>
		<path fill="none" stroke="#BD1622" stroke-width="1.1109" stroke-miterlimit="10" d="M399.529,723.402
			c0-29.661,24.003-53.665,53.667-53.665"/>
		<path fill="none" stroke="#BD1622" stroke-width="1.1109" stroke-miterlimit="10" d="M497.066,713.61
			c0-24.248-19.624-43.873-43.87-43.873"/>
		<path fill="none" stroke="#009EE2" stroke-width="1.1109" stroke-miterlimit="10" d="M399.157,620.971
			c0,110.234-89.36,199.6-199.596,199.6c-110.238,0-199.6-89.364-199.6-199.6s89.362-199.599,199.6-199.599
			C309.797,421.372,399.157,510.734,399.157,620.971z"/>
		<circle fill="none" stroke="#009EE2" stroke-width="1.1109" stroke-miterlimit="10" cx="523.898" cy="545.367" r="124.369"/>
		<circle fill="none" stroke="#009EE2" stroke-width="1.1109" stroke-miterlimit="10" cx="572.667" cy="745.34" r="75.601"/>
		<circle fill="none" stroke="#009EE2" stroke-width="1.1109" stroke-miterlimit="10" cx="448.298" cy="772.172" r="48.769"/>
		<circle fill="none" stroke="#009EE2" stroke-width="1.1109" stroke-miterlimit="10" cx="426.363" cy="696.57" r="26.833"/>
		<circle fill="none" stroke="#009EE2" stroke-width="1.1109" stroke-miterlimit="10" cx="475.131" cy="691.673" r="21.935"/>
		
			<line fill="none" stroke="#99C33A" stroke-width="1.1109" stroke-miterlimit="10" x1="-0.409" y1="821.417" x2="400.009" y2="420.999"/>
		
			<line fill="none" stroke="#99C33A" stroke-width="1.1109" stroke-miterlimit="10" x1="400.009" y1="420.999" x2="647.267" y2="668.258"/>
		
			<line fill="none" stroke="#99C33A" stroke-width="1.1109" stroke-miterlimit="10" x1="648.269" y1="669.737" x2="499.354" y2="818.653"/>
		
			<line fill="none" stroke="#99C33A" stroke-width="1.1109" stroke-miterlimit="10" x1="497.066" y1="820.94" x2="400.729" y2="724.6"/>
		
			<line fill="none" stroke="#99C33A" stroke-width="1.1109" stroke-miterlimit="10" x1="399.529" y1="723.402" x2="453.869" y2="669.062"/>
		
			<line fill="none" stroke="#99C33A" stroke-width="1.1109" stroke-miterlimit="10" x1="453.869" y1="669.062" x2="497.741" y2="712.936"/>
	</g>
	
		<line fill="none" stroke="#99C33A" stroke-width="1.626" stroke-miterlimit="10" x1="399.529" y1="669.737" x2="646.055" y2="423.211"/>
</g>
<path fill="#6C7171" d="M181.25,218.75"/>
<path fill="#6C7171" d="M-170,11.717c-82.361,0-149.129,66.767-149.129,149.128c0,82.362,66.768,149.127,149.129,149.127
	s149.129-66.767,149.129-149.127C-20.871,78.484-87.639,11.717-170,11.717z M-170.018,279.111
	c-64.974,0-117.646-52.672-117.646-117.645s52.672-117.645,117.646-117.645c64.973,0,117.645,52.672,117.645,117.645
	S-105.045,279.111-170.018,279.111z"/>
<path fill="#64788D" d="M352.578,152.51C349.498,70.861,282.402,5.628,200.009,5.608c-82.422,0.02-149.52,65.253-152.588,146.917
	l-28.943-0.016v8.985c0,92.357,68.973,168.521,158.216,179.982c-3.244,4.624-5.187,10.227-5.187,16.303
	c0,7.823,3.156,14.896,8.242,20.041h-62.061c-9.439,0-17.09,7.312-17.805,16.569h200.225c-0.711-9.259-8.354-16.569-17.793-16.569
	H220.26c5.079-5.146,8.231-12.218,8.231-20.041c0-6.076-1.927-11.679-5.175-16.314c89.22-11.448,158.194-87.617,158.205-179.971
	v-8.985L352.578,152.51L352.578,152.51z M200.009,41.512c64.505,0.102,116.691,52.31,116.823,116.817
	c-0.132,64.512-52.318,116.698-116.823,116.829c-64.516-0.131-116.715-52.317-116.832-116.829
	C83.294,93.821,135.489,41.613,200.009,41.512z M200.009,325.061c-87.334-0.152-158.529-68.451-163.315-154.593h11.104
	C54,249.134,119.733,311.043,200.01,311.043c80.254,0,145.996-61.909,152.188-140.575h11.112
	C358.521,256.607,287.336,324.907,200.009,325.061z"/>
<path fill="#D6002B" d="M200,113c-50.948,0-92.25,47.379-92.25,47.379s41.302,47.379,92.25,47.379s92.25-47.379,92.25-47.379
	S250.948,113,200,113z M200,202.863c-22.789,0-41.264-18.474-41.264-41.263s18.475-41.264,41.264-41.264
	s41.264,18.475,41.264,41.264S222.789,202.863,200,202.863z"/>
<path fill="#D6002B" d="M200.836,132.042c-2.888,0-5.675,0.431-8.305,1.224c2.209,2.176,3.582,5.2,3.582,8.546
	c0,6.628-5.373,12-11.999,12c-3.885,0-7.329-1.854-9.522-4.717c-1.588,3.567-2.478,7.513-2.478,11.669
	c0,15.863,12.859,28.721,28.722,28.721c15.863,0,28.723-12.858,28.723-28.721C229.559,144.901,216.699,132.042,200.836,132.042z"/>
<polygon fill="#6C7171" points="-218,320 -122,320 -122,356 -80.5,392 -260,392 -218,356 "/>
</svg>
