<?xml version="1.0" encoding="utf-8"?>
<!-- Generator: Adobe Illustrator 15.0.2, SVG Export Plug-In . SVG Version: 6.00 Build 0)  -->
<!DOCTYPE svg PUBLIC "-//W3C//DTD SVG 1.1//EN" "http://www.w3.org/Graphics/SVG/1.1/DTD/svg11.dtd">
<svg version="1.1" id="Layer_1" xmlns="http://www.w3.org/2000/svg" xmlns:xlink="http://www.w3.org/1999/xlink" x="0px" y="0px"
	 width="32px" height="32px" viewBox="0 0 32 32" enable-background="new 0 0 32 32" xml:space="preserve">
<rect fill="none" width="32" height="32"/>
<path fill="#6C7171" d="M16,17.182"/>
<path fill="#64788D" d="M25.423,13.091C25.233,8.048,21.09,4.02,16,4.018c-5.09,0.001-9.234,4.03-9.424,9.074l-1.788-0.001v0.555
	c0,5.704,4.26,10.408,9.771,11.116c-0.201,0.285-0.32,0.632-0.32,1.006c0,0.484,0.195,0.921,0.509,1.238h-3.833
	c-0.583,0-1.056,0.451-1.1,1.023h12.365c-0.043-0.572-0.516-1.023-1.098-1.023h-3.833c0.313-0.317,0.508-0.754,0.508-1.238
	c0-0.374-0.118-0.721-0.319-1.007c5.51-0.707,9.771-5.411,9.771-11.115v-0.555H25.423L25.423,13.091z M16,6.236
	c3.984,0.006,7.207,3.23,7.214,7.214c-0.008,3.984-3.23,7.208-7.214,7.216c-3.985-0.008-7.208-3.231-7.216-7.216
	C8.792,9.466,12.016,6.242,16,6.236z M16,23.747c-5.394-0.009-9.791-4.227-10.086-9.547H6.6c0.383,4.858,4.443,8.682,9.401,8.682
	c4.957,0,9.017-3.823,9.399-8.682h0.687C25.79,19.521,21.394,23.738,16,23.747z"/>
<path fill="#D6002B" d="M16,10.651c-3.146,0-5.697,2.926-5.697,2.926s2.551,2.926,5.697,2.926s5.697-2.926,5.697-2.926
	S19.146,10.651,16,10.651z M16,16.2c-1.407,0-2.549-1.141-2.549-2.548c0-1.408,1.142-2.548,2.549-2.548s2.549,1.141,2.549,2.548
	C18.549,15.06,17.407,16.2,16,16.2z"/>
<path fill="#D6002B" d="M16,11.827c-0.179,0-0.351,0.027-0.513,0.076c0.136,0.134,0.221,0.321,0.221,0.528
	c0,0.409-0.332,0.741-0.741,0.741c-0.239,0-0.452-0.115-0.588-0.291c-0.098,0.22-0.152,0.464-0.152,0.72
	c0,0.98,0.794,1.774,1.773,1.774s1.773-0.794,1.773-1.774C17.773,12.621,16.979,11.827,16,11.827z"/>
</svg>
